<?xml version="1.0" standalone="no"?>
<!DOCTYPE svg PUBLIC "-//W3C//DTD SVG 20010904//EN"
 "http://www.w3.org/TR/2001/REC-SVG-20010904/DTD/svg10.dtd">
<svg version="1.0" xmlns="http://www.w3.org/2000/svg"
 width="1230.000000pt" height="1280.000000pt" viewBox="0 0 1230.000000 1280.000000"
 preserveAspectRatio="xMidYMid meet">
<metadata>
Created by potrace 1.15, written by Peter Selinger 2001-2017
</metadata>
<g transform="translate(0.000000,1280.000000) scale(0.100000,-0.100000)"
fill="#000000" stroke="none">
<path d="M2870 12794 c-25 -2 -106 -8 -180 -14 -1268 -101 -2282 -566 -2595
-1188 -151 -302 -120 -609 93 -912 150 -213 449 -447 773 -603 252 -122 628
-251 894 -306 22 -5 76 -16 120 -25 44 -9 90 -19 103 -21 22 -5 22 -6 -13 -52
-78 -102 -123 -244 -109 -341 19 -130 83 -240 210 -361 334 -322 992 -540
1889 -628 254 -24 877 -24 1125 1 397 39 709 95 999 178 513 146 894 376 1030
620 l26 47 95 21 c52 12 103 24 112 26 12 4 27 -15 59 -78 58 -110 142 -222
243 -321 320 -317 859 -501 1341 -458 267 23 463 78 690 191 77 38 169 91 205
118 l65 48 70 -71 c80 -81 134 -120 231 -169 120 -59 173 -71 329 -71 120 0
150 3 209 23 140 47 247 114 347 218 126 131 206 280 257 479 23 88 26 119 26
265 0 146 -3 177 -27 270 -34 130 -126 319 -200 410 -215 264 -558 373 -846
269 -96 -35 -91 -36 -146 42 -67 94 -231 251 -335 320 -295 196 -645 300
-1009 300 -215 -1 -396 -29 -584 -91 -98 -33 -300 -127 -381 -177 l-49 -31
-66 30 c-361 164 -847 258 -1337 258 l-181 0 13 68 c99 509 -363 1048 -1176
1370 -416 165 -879 271 -1435 328 -140 14 -775 27 -885 18z"/>
<path d="M10262 8118 c-7 -117 -17 -276 -22 -353 -9 -138 -19 -303 -40 -645
-10 -169 -19 -309 -40 -645 -5 -88 -14 -236 -20 -330 -6 -93 -15 -240 -20
-325 -5 -85 -14 -231 -20 -325 -6 -93 -15 -240 -20 -325 -5 -85 -14 -234 -20
-330 -6 -96 -15 -245 -20 -330 -5 -85 -14 -231 -20 -325 -6 -93 -15 -240 -20
-325 -5 -85 -14 -231 -20 -325 -6 -93 -15 -240 -20 -325 -5 -85 -14 -231 -20
-325 -15 -237 -28 -458 -40 -642 -5 -87 -14 -237 -20 -333 -6 -96 -15 -245
-20 -330 -9 -150 -20 -328 -40 -650 -5 -85 -14 -227 -20 -315 -5 -88 -14 -241
-20 -340 -6 -99 -12 -201 -15 -228 l-4 -47 1269 0 1270 0 0 170 c0 94 -7 235
-15 313 -13 132 -19 191 -45 447 -5 52 -14 140 -20 195 -6 55 -73 735 -150
1510 -77 776 -145 1455 -150 1510 -16 151 -323 3238 -370 3720 -23 231 -43
430 -46 443 l-4 22 -613 0 -613 0 -12 -212z"/>
<path d="M7964 3587 l-1489 -902 -3 878 c-2 787 -4 878 -18 873 -8 -3 -248
-144 -532 -313 -2036 -1208 -2433 -1443 -2437 -1443 -3 0 -5 389 -5 865 0 476
-2 865 -5 865 -5 0 -477 -288 -2960 -1805 l-380 -232 -3 -1145 -2 -1145 1982
-7 c1091 -4 2755 -11 3698 -16 943 -5 2139 -10 2656 -10 l942 0 6 133 c3 72
10 724 16 1447 6 723 15 1661 20 2085 5 423 7 771 6 772 -1 2 -673 -403 -1492
-900z"/>
</g>
</svg>
